<?xml version="1.0" standalone="no"?><svg xmlns:xlink="http://www.w3.org/1999/xlink" xmlns="http://www.w3.org/2000/svg" viewBox="0 0 1500 1153.8607309749843" preserveAspectRatio="xMaxYMax slice"><g transform="scale(2.105585275501796)"><rect x="0" y="0" width="712.4" height="548" fill="#28282A"/><circle cx="82.2" cy="27.400000000000002" r="5.48" fill="#523c3f"/><circle cx="191.79999999999998" cy="27.400000000000002" r="5.48" fill="#404043"/><circle cx="301.40000000000003" cy="27.400000000000002" r="5.48" fill="#343436"/><circle cx="356.20000000000005" cy="27.400000000000002" r="5.48" fill="#68474a"/><circle cx="411" cy="27.400000000000002" r="5.48" fill="#db7e84"/><circle cx="465.8" cy="27.400000000000002" r="5.48" fill="#2b2b2d"/><circle cx="520.6" cy="27.400000000000002" r="5.48" fill="#29292b"/><circle cx="685" cy="27.400000000000002" r="5.48" fill="#333336"/><circle cx="82.2" cy="82.2" r="5.48" fill="#333335"/><circle cx="137" cy="82.2" r="5.48" fill="#29292b"/><circle cx="82.2" cy="137" r="5.48" fill="#3d3d3f"/><circle cx="411" cy="137" r="5.48" fill="#db7e85"/><circle cx="575.4" cy="137" r="5.48" fill="#905a5e"/><circle cx="685" cy="137" r="5.48" fill="#444447"/><circle cx="82.2" cy="191.79999999999998" r="5.48" fill="#d77c82"/><circle cx="246.6" cy="191.79999999999998" r="5.48" fill="#ea858c"/><circle cx="301.40000000000003" cy="191.79999999999998" r="5.48" fill="#363639"/><circle cx="575.4" cy="191.79999999999998" r="5.48" fill="#2c2c2e"/><circle cx="630.2" cy="191.79999999999998" r="5.48" fill="#2f2f31"/><circle cx="685" cy="191.79999999999998" r="5.48" fill="#e7838a"/><circle cx="191.79999999999998" cy="246.6" r="5.48" fill="#3e3e41"/><circle cx="246.6" cy="246.6" r="5.48" fill="#3f3f42"/><circle cx="301.40000000000003" cy="246.6" r="5.48" fill="#404042"/><circle cx="465.8" cy="246.6" r="5.48" fill="#3f3f42"/><circle cx="520.6" cy="246.6" r="5.48" fill="#543d40"/><circle cx="575.4" cy="246.6" r="5.48" fill="#9d6065"/><circle cx="27.400000000000002" cy="301.40000000000003" r="5.48" fill="#845459"/><circle cx="137" cy="301.40000000000003" r="5.48" fill="#d1797f"/><circle cx="301.40000000000003" cy="301.40000000000003" r="5.48" fill="#2a292b"/><circle cx="356.20000000000005" cy="301.40000000000003" r="5.48" fill="#2b2b2d"/><circle cx="411" cy="301.40000000000003" r="5.48" fill="#3e3e41"/><circle cx="465.8" cy="301.40000000000003" r="5.48" fill="#3f3f41"/><circle cx="575.4" cy="301.40000000000003" r="5.48" fill="#424245"/><circle cx="27.400000000000002" cy="356.20000000000005" r="5.48" fill="#373739"/><circle cx="137" cy="356.20000000000005" r="5.48" fill="#2c2c2e"/><circle cx="191.79999999999998" cy="356.20000000000005" r="5.48" fill="#4a383b"/><circle cx="356.20000000000005" cy="356.20000000000005" r="5.48" fill="#c9757b"/><circle cx="411" cy="356.20000000000005" r="5.48" fill="#2b2b2d"/><circle cx="465.8" cy="356.20000000000005" r="5.48" fill="#714b4f"/><circle cx="27.400000000000002" cy="411" r="5.48" fill="#313133"/><circle cx="82.2" cy="411" r="5.48" fill="#3b3b3e"/><circle cx="191.79999999999998" cy="411" r="5.48" fill="#533d40"/><circle cx="520.6" cy="411" r="5.48" fill="#be7076"/><circle cx="685" cy="411" r="5.48" fill="#453639"/><circle cx="191.79999999999998" cy="465.8" r="5.48" fill="#935b60"/><circle cx="246.6" cy="465.8" r="5.48" fill="#333335"/><circle cx="301.40000000000003" cy="465.8" r="5.48" fill="#47373a"/><circle cx="356.20000000000005" cy="465.8" r="5.48" fill="#cc767d"/><circle cx="191.79999999999998" cy="520.6" r="5.48" fill="#313134"/><circle cx="246.6" cy="520.6" r="5.48" fill="#3e3e41"/><circle cx="356.20000000000005" cy="520.6" r="5.48" fill="#444447"/><circle cx="630.2" cy="520.6" r="5.48" fill="#303033"/></g></svg>